<svg xmlns="http://www.w3.org/2000/svg" width="164" height="84" fill="none" viewBox="0 0 164 84">
  <path fill="#38BDF8" fill-rule="evenodd" d="M32 74c17.673 0 32-14.327 32-32 0-17.673-14.327-32-32-32C14.327 10 0 24.327 0 42c0 17.673 14.327 32 32 32Zm-8.778-34.666c1.23-4.89 4.304-7.334 9.222-7.334 4.572 0 6.664 2.11 8.473 3.937 1.11 1.12 2.112 2.131 3.516 2.48 2.46.611 4.611-.306 6.455-2.75C49.658 40.555 46.584 43 41.666 43c-4.57 0-6.664-2.111-8.473-3.936-1.11-1.12-2.113-2.132-3.516-2.48-2.459-.611-4.61.305-6.455 2.75Zm-9.222 11C15.23 45.444 18.304 43 23.222 43c4.57 0 6.664 2.112 8.472 3.936 1.11 1.12 2.114 2.132 3.517 2.481 2.459.611 4.61-.306 6.455-2.75-1.23 4.89-4.303 7.333-9.222 7.333-4.571 0-6.664-2.111-8.472-3.935-1.11-1.121-2.113-2.133-3.517-2.481-2.458-.611-4.61.305-6.455 2.75Z" clip-rule="evenodd"/>
  <path fill="#38BDF8" d="m92.769 57.138-5.512-6.35 17.862-19.676h10.955L92.769 57.138ZM83.977 66V17.157h9.21V66h-9.21Zm22.329 0L94.723 49.114l6.001-6.35L117.121 66h-10.815Zm15.775 0V31.112h9.21V66h-9.21Zm4.605-40.54c-1.395 0-2.628-.512-3.698-1.535-1.07-1.07-1.605-2.326-1.605-3.768 0-1.442.535-2.675 1.605-3.698 1.07-1.07 2.303-1.605 3.698-1.605 1.442 0 2.675.535 3.698 1.605 1.07 1.023 1.605 2.256 1.605 3.698 0 1.442-.535 2.698-1.605 3.768-1.023 1.023-2.256 1.535-3.698 1.535Zm27.472 41.377c-3.861 0-6.791-.953-8.791-2.86-1.954-1.908-2.931-4.629-2.931-8.164V20.227h9.21v33.562c0 1.489.326 2.628.977 3.42.652.743 1.605 1.116 2.861 1.116.465 0 .977-.093 1.535-.28a9.57 9.57 0 0 0 1.745-.976l3.209 6.907A14.616 14.616 0 0 1 158.205 66c-1.349.558-2.698.837-4.047.837Zm-17.374-27.91v-7.815h23.584v7.815h-23.584Z"/>
</svg>
